<?xml version="1.0" encoding="UTF-8"?>
<svg xmlns="http://www.w3.org/2000/svg" xmlns:xlink="http://www.w3.org/1999/xlink" width="461pt" height="360pt" viewBox="0 0 461 360" version="1.1">
<defs>
<clipPath id="clip1">
  <path d="M 52.640625 124 L 372.59375 124 L 372.59375 125 L 52.640625 125 Z M 52.640625 124 "/>
</clipPath>
<clipPath id="clip2">
  <path d="M 52.640625 186 L 372.59375 186 L 372.59375 187 L 52.640625 187 Z M 52.640625 186 "/>
</clipPath>
<clipPath id="clip3">
  <path d="M 52.640625 248 L 372.59375 248 L 372.59375 250 L 52.640625 250 Z M 52.640625 248 "/>
</clipPath>
<clipPath id="clip4">
  <path d="M 52.640625 310 L 372.59375 310 L 372.59375 312 L 52.640625 312 Z M 52.640625 310 "/>
</clipPath>
<clipPath id="clip5">
  <path d="M 52.640625 92 L 372.59375 92 L 372.59375 94 L 52.640625 94 Z M 52.640625 92 "/>
</clipPath>
<clipPath id="clip6">
  <path d="M 52.640625 155 L 372.59375 155 L 372.59375 157 L 52.640625 157 Z M 52.640625 155 "/>
</clipPath>
<clipPath id="clip7">
  <path d="M 52.640625 217 L 372.59375 217 L 372.59375 219 L 52.640625 219 Z M 52.640625 217 "/>
</clipPath>
<clipPath id="clip8">
  <path d="M 52.640625 279 L 372.59375 279 L 372.59375 281 L 52.640625 281 Z M 52.640625 279 "/>
</clipPath>
<clipPath id="clip9">
  <path d="M 52.640625 341 L 372.59375 341 L 372.59375 343 L 52.640625 343 Z M 52.640625 341 "/>
</clipPath>
<clipPath id="clip10">
  <path d="M 69 81.019531 L 71 81.019531 L 71 354.519531 L 69 354.519531 Z M 69 81.019531 "/>
</clipPath>
<clipPath id="clip11">
  <path d="M 97 81.019531 L 99 81.019531 L 99 354.519531 L 97 354.519531 Z M 97 81.019531 "/>
</clipPath>
<clipPath id="clip12">
  <path d="M 126 81.019531 L 128 81.019531 L 128 354.519531 L 126 354.519531 Z M 126 81.019531 "/>
</clipPath>
<clipPath id="clip13">
  <path d="M 154 81.019531 L 157 81.019531 L 157 354.519531 L 154 354.519531 Z M 154 81.019531 "/>
</clipPath>
<clipPath id="clip14">
  <path d="M 183 81.019531 L 185 81.019531 L 185 354.519531 L 183 354.519531 Z M 183 81.019531 "/>
</clipPath>
<clipPath id="clip15">
  <path d="M 212 81.019531 L 214 81.019531 L 214 354.519531 L 212 354.519531 Z M 212 81.019531 "/>
</clipPath>
<clipPath id="clip16">
  <path d="M 240 81.019531 L 242 81.019531 L 242 354.519531 L 240 354.519531 Z M 240 81.019531 "/>
</clipPath>
<clipPath id="clip17">
  <path d="M 269 81.019531 L 271 81.019531 L 271 354.519531 L 269 354.519531 Z M 269 81.019531 "/>
</clipPath>
<clipPath id="clip18">
  <path d="M 297 81.019531 L 299 81.019531 L 299 354.519531 L 297 354.519531 Z M 297 81.019531 "/>
</clipPath>
<clipPath id="clip19">
  <path d="M 326 81.019531 L 328 81.019531 L 328 354.519531 L 326 354.519531 Z M 326 81.019531 "/>
</clipPath>
<clipPath id="clip20">
  <path d="M 354 81.019531 L 356 81.019531 L 356 354.519531 L 354 354.519531 Z M 354 81.019531 "/>
</clipPath>
</defs>
<g id="surface11">
<rect x="0" y="0" width="461" height="360" style="fill:rgb(100%,100%,100%);fill-opacity:1;stroke:none;"/>
<g clip-path="url(#clip1)" clip-rule="nonzero">
<path style="fill:none;stroke-width:0.533489;stroke-linecap:butt;stroke-linejoin:round;stroke:rgb(92.156863%,92.156863%,92.156863%);stroke-opacity:1;stroke-miterlimit:10;" d="M 52.640625 124.527344 L 372.59375 124.527344 "/>
</g>
<g clip-path="url(#clip2)" clip-rule="nonzero">
<path style="fill:none;stroke-width:0.533489;stroke-linecap:butt;stroke-linejoin:round;stroke:rgb(92.156863%,92.156863%,92.156863%);stroke-opacity:1;stroke-miterlimit:10;" d="M 52.640625 186.6875 L 372.59375 186.6875 "/>
</g>
<g clip-path="url(#clip3)" clip-rule="nonzero">
<path style="fill:none;stroke-width:0.533489;stroke-linecap:butt;stroke-linejoin:round;stroke:rgb(92.156863%,92.156863%,92.156863%);stroke-opacity:1;stroke-miterlimit:10;" d="M 52.640625 248.847656 L 372.59375 248.847656 "/>
</g>
<g clip-path="url(#clip4)" clip-rule="nonzero">
<path style="fill:none;stroke-width:0.533489;stroke-linecap:butt;stroke-linejoin:round;stroke:rgb(92.156863%,92.156863%,92.156863%);stroke-opacity:1;stroke-miterlimit:10;" d="M 52.640625 311.007813 L 372.59375 311.007813 "/>
</g>
<g clip-path="url(#clip5)" clip-rule="nonzero">
<path style="fill:none;stroke-width:1.066978;stroke-linecap:butt;stroke-linejoin:round;stroke:rgb(92.156863%,92.156863%,92.156863%);stroke-opacity:1;stroke-miterlimit:10;" d="M 52.640625 93.449219 L 372.59375 93.449219 "/>
</g>
<g clip-path="url(#clip6)" clip-rule="nonzero">
<path style="fill:none;stroke-width:1.066978;stroke-linecap:butt;stroke-linejoin:round;stroke:rgb(92.156863%,92.156863%,92.156863%);stroke-opacity:1;stroke-miterlimit:10;" d="M 52.640625 155.609375 L 372.59375 155.609375 "/>
</g>
<g clip-path="url(#clip7)" clip-rule="nonzero">
<path style="fill:none;stroke-width:1.066978;stroke-linecap:butt;stroke-linejoin:round;stroke:rgb(92.156863%,92.156863%,92.156863%);stroke-opacity:1;stroke-miterlimit:10;" d="M 52.640625 217.769531 L 372.59375 217.769531 "/>
</g>
<g clip-path="url(#clip8)" clip-rule="nonzero">
<path style="fill:none;stroke-width:1.066978;stroke-linecap:butt;stroke-linejoin:round;stroke:rgb(92.156863%,92.156863%,92.156863%);stroke-opacity:1;stroke-miterlimit:10;" d="M 52.640625 279.929688 L 372.59375 279.929688 "/>
</g>
<g clip-path="url(#clip9)" clip-rule="nonzero">
<path style="fill:none;stroke-width:1.066978;stroke-linecap:butt;stroke-linejoin:round;stroke:rgb(92.156863%,92.156863%,92.156863%);stroke-opacity:1;stroke-miterlimit:10;" d="M 52.640625 342.085938 L 372.59375 342.085938 "/>
</g>
<g clip-path="url(#clip10)" clip-rule="nonzero">
<path style="fill:none;stroke-width:1.066978;stroke-linecap:butt;stroke-linejoin:round;stroke:rgb(92.156863%,92.156863%,92.156863%);stroke-opacity:1;stroke-miterlimit:10;" d="M 69.78125 354.519531 L 69.78125 81.019531 "/>
</g>
<g clip-path="url(#clip11)" clip-rule="nonzero">
<path style="fill:none;stroke-width:1.066978;stroke-linecap:butt;stroke-linejoin:round;stroke:rgb(92.156863%,92.156863%,92.156863%);stroke-opacity:1;stroke-miterlimit:10;" d="M 98.347656 354.519531 L 98.347656 81.019531 "/>
</g>
<g clip-path="url(#clip12)" clip-rule="nonzero">
<path style="fill:none;stroke-width:1.066978;stroke-linecap:butt;stroke-linejoin:round;stroke:rgb(92.156863%,92.156863%,92.156863%);stroke-opacity:1;stroke-miterlimit:10;" d="M 126.914063 354.519531 L 126.914063 81.019531 "/>
</g>
<g clip-path="url(#clip13)" clip-rule="nonzero">
<path style="fill:none;stroke-width:1.066978;stroke-linecap:butt;stroke-linejoin:round;stroke:rgb(92.156863%,92.156863%,92.156863%);stroke-opacity:1;stroke-miterlimit:10;" d="M 155.480469 354.519531 L 155.480469 81.019531 "/>
</g>
<g clip-path="url(#clip14)" clip-rule="nonzero">
<path style="fill:none;stroke-width:1.066978;stroke-linecap:butt;stroke-linejoin:round;stroke:rgb(92.156863%,92.156863%,92.156863%);stroke-opacity:1;stroke-miterlimit:10;" d="M 184.050781 354.519531 L 184.050781 81.019531 "/>
</g>
<g clip-path="url(#clip15)" clip-rule="nonzero">
<path style="fill:none;stroke-width:1.066978;stroke-linecap:butt;stroke-linejoin:round;stroke:rgb(92.156863%,92.156863%,92.156863%);stroke-opacity:1;stroke-miterlimit:10;" d="M 212.617188 354.519531 L 212.617188 81.019531 "/>
</g>
<g clip-path="url(#clip16)" clip-rule="nonzero">
<path style="fill:none;stroke-width:1.066978;stroke-linecap:butt;stroke-linejoin:round;stroke:rgb(92.156863%,92.156863%,92.156863%);stroke-opacity:1;stroke-miterlimit:10;" d="M 241.183594 354.519531 L 241.183594 81.019531 "/>
</g>
<g clip-path="url(#clip17)" clip-rule="nonzero">
<path style="fill:none;stroke-width:1.066978;stroke-linecap:butt;stroke-linejoin:round;stroke:rgb(92.156863%,92.156863%,92.156863%);stroke-opacity:1;stroke-miterlimit:10;" d="M 269.75 354.519531 L 269.75 81.019531 "/>
</g>
<g clip-path="url(#clip18)" clip-rule="nonzero">
<path style="fill:none;stroke-width:1.066978;stroke-linecap:butt;stroke-linejoin:round;stroke:rgb(92.156863%,92.156863%,92.156863%);stroke-opacity:1;stroke-miterlimit:10;" d="M 298.316406 354.519531 L 298.316406 81.019531 "/>
</g>
<g clip-path="url(#clip19)" clip-rule="nonzero">
<path style="fill:none;stroke-width:1.066978;stroke-linecap:butt;stroke-linejoin:round;stroke:rgb(92.156863%,92.156863%,92.156863%);stroke-opacity:1;stroke-miterlimit:10;" d="M 326.886719 354.519531 L 326.886719 81.019531 "/>
</g>
<g clip-path="url(#clip20)" clip-rule="nonzero">
<path style="fill:none;stroke-width:1.066978;stroke-linecap:butt;stroke-linejoin:round;stroke:rgb(92.156863%,92.156863%,92.156863%);stroke-opacity:1;stroke-miterlimit:10;" d="M 355.453125 354.519531 L 355.453125 81.019531 "/>
</g>
</g>
</svg>
