<?xml version="1.0" encoding="UTF-8"?>
<svg xmlns="http://www.w3.org/2000/svg" xmlns:xlink="http://www.w3.org/1999/xlink" width="461pt" height="360pt" viewBox="0 0 461 360" version="1.1">
<defs>
<clipPath id="clip1">
  <path d="M 52.640625 124 L 372.59375 124 L 372.59375 125 L 52.640625 125 Z M 52.640625 124 "/>
</clipPath>
<clipPath id="clip2">
  <path d="M 52.640625 186 L 372.59375 186 L 372.59375 187 L 52.640625 187 Z M 52.640625 186 "/>
</clipPath>
<clipPath id="clip3">
  <path d="M 52.640625 248 L 372.59375 248 L 372.59375 250 L 52.640625 250 Z M 52.640625 248 "/>
</clipPath>
<clipPath id="clip4">
  <path d="M 52.640625 310 L 372.59375 310 L 372.59375 312 L 52.640625 312 Z M 52.640625 310 "/>
</clipPath>
<clipPath id="clip5">
  <path d="M 52.640625 92 L 372.59375 92 L 372.59375 94 L 52.640625 94 Z M 52.640625 92 "/>
</clipPath>
<clipPath id="clip6">
  <path d="M 52.640625 155 L 372.59375 155 L 372.59375 157 L 52.640625 157 Z M 52.640625 155 "/>
</clipPath>
<clipPath id="clip7">
  <path d="M 52.640625 217 L 372.59375 217 L 372.59375 219 L 52.640625 219 Z M 52.640625 217 "/>
</clipPath>
<clipPath id="clip8">
  <path d="M 52.640625 279 L 372.59375 279 L 372.59375 281 L 52.640625 281 Z M 52.640625 279 "/>
</clipPath>
<clipPath id="clip9">
  <path d="M 52.640625 341 L 372.59375 341 L 372.59375 343 L 52.640625 343 Z M 52.640625 341 "/>
</clipPath>
<clipPath id="clip10">
  <path d="M 70 81.019531 L 72 81.019531 L 72 354.519531 L 70 354.519531 Z M 70 81.019531 "/>
</clipPath>
<clipPath id="clip11">
  <path d="M 102 81.019531 L 104 81.019531 L 104 354.519531 L 102 354.519531 Z M 102 81.019531 "/>
</clipPath>
<clipPath id="clip12">
  <path d="M 133 81.019531 L 135 81.019531 L 135 354.519531 L 133 354.519531 Z M 133 81.019531 "/>
</clipPath>
<clipPath id="clip13">
  <path d="M 165 81.019531 L 167 81.019531 L 167 354.519531 L 165 354.519531 Z M 165 81.019531 "/>
</clipPath>
<clipPath id="clip14">
  <path d="M 196 81.019531 L 198 81.019531 L 198 354.519531 L 196 354.519531 Z M 196 81.019531 "/>
</clipPath>
<clipPath id="clip15">
  <path d="M 227 81.019531 L 229 81.019531 L 229 354.519531 L 227 354.519531 Z M 227 81.019531 "/>
</clipPath>
<clipPath id="clip16">
  <path d="M 259 81.019531 L 261 81.019531 L 261 354.519531 L 259 354.519531 Z M 259 81.019531 "/>
</clipPath>
<clipPath id="clip17">
  <path d="M 290 81.019531 L 292 81.019531 L 292 354.519531 L 290 354.519531 Z M 290 81.019531 "/>
</clipPath>
<clipPath id="clip18">
  <path d="M 321 81.019531 L 323 81.019531 L 323 354.519531 L 321 354.519531 Z M 321 81.019531 "/>
</clipPath>
<clipPath id="clip19">
  <path d="M 353 81.019531 L 355 81.019531 L 355 354.519531 L 353 354.519531 Z M 353 81.019531 "/>
</clipPath>
</defs>
<g id="surface21">
<rect x="0" y="0" width="461" height="360" style="fill:rgb(100%,100%,100%);fill-opacity:1;stroke:none;"/>
<g clip-path="url(#clip1)" clip-rule="nonzero">
<path style="fill:none;stroke-width:0.533489;stroke-linecap:butt;stroke-linejoin:round;stroke:rgb(92.156863%,92.156863%,92.156863%);stroke-opacity:1;stroke-miterlimit:10;" d="M 52.640625 124.527344 L 372.59375 124.527344 "/>
</g>
<g clip-path="url(#clip2)" clip-rule="nonzero">
<path style="fill:none;stroke-width:0.533489;stroke-linecap:butt;stroke-linejoin:round;stroke:rgb(92.156863%,92.156863%,92.156863%);stroke-opacity:1;stroke-miterlimit:10;" d="M 52.640625 186.6875 L 372.59375 186.6875 "/>
</g>
<g clip-path="url(#clip3)" clip-rule="nonzero">
<path style="fill:none;stroke-width:0.533489;stroke-linecap:butt;stroke-linejoin:round;stroke:rgb(92.156863%,92.156863%,92.156863%);stroke-opacity:1;stroke-miterlimit:10;" d="M 52.640625 248.847656 L 372.59375 248.847656 "/>
</g>
<g clip-path="url(#clip4)" clip-rule="nonzero">
<path style="fill:none;stroke-width:0.533489;stroke-linecap:butt;stroke-linejoin:round;stroke:rgb(92.156863%,92.156863%,92.156863%);stroke-opacity:1;stroke-miterlimit:10;" d="M 52.640625 311.007813 L 372.59375 311.007813 "/>
</g>
<g clip-path="url(#clip5)" clip-rule="nonzero">
<path style="fill:none;stroke-width:1.066978;stroke-linecap:butt;stroke-linejoin:round;stroke:rgb(92.156863%,92.156863%,92.156863%);stroke-opacity:1;stroke-miterlimit:10;" d="M 52.640625 93.449219 L 372.59375 93.449219 "/>
</g>
<g clip-path="url(#clip6)" clip-rule="nonzero">
<path style="fill:none;stroke-width:1.066978;stroke-linecap:butt;stroke-linejoin:round;stroke:rgb(92.156863%,92.156863%,92.156863%);stroke-opacity:1;stroke-miterlimit:10;" d="M 52.640625 155.609375 L 372.59375 155.609375 "/>
</g>
<g clip-path="url(#clip7)" clip-rule="nonzero">
<path style="fill:none;stroke-width:1.066978;stroke-linecap:butt;stroke-linejoin:round;stroke:rgb(92.156863%,92.156863%,92.156863%);stroke-opacity:1;stroke-miterlimit:10;" d="M 52.640625 217.769531 L 372.59375 217.769531 "/>
</g>
<g clip-path="url(#clip8)" clip-rule="nonzero">
<path style="fill:none;stroke-width:1.066978;stroke-linecap:butt;stroke-linejoin:round;stroke:rgb(92.156863%,92.156863%,92.156863%);stroke-opacity:1;stroke-miterlimit:10;" d="M 52.640625 279.929688 L 372.59375 279.929688 "/>
</g>
<g clip-path="url(#clip9)" clip-rule="nonzero">
<path style="fill:none;stroke-width:1.066978;stroke-linecap:butt;stroke-linejoin:round;stroke:rgb(92.156863%,92.156863%,92.156863%);stroke-opacity:1;stroke-miterlimit:10;" d="M 52.640625 342.085938 L 372.59375 342.085938 "/>
</g>
<g clip-path="url(#clip10)" clip-rule="nonzero">
<path style="fill:none;stroke-width:1.066978;stroke-linecap:butt;stroke-linejoin:round;stroke:rgb(92.156863%,92.156863%,92.156863%);stroke-opacity:1;stroke-miterlimit:10;" d="M 71.460938 354.519531 L 71.460938 81.019531 "/>
</g>
<g clip-path="url(#clip11)" clip-rule="nonzero">
<path style="fill:none;stroke-width:1.066978;stroke-linecap:butt;stroke-linejoin:round;stroke:rgb(92.156863%,92.156863%,92.156863%);stroke-opacity:1;stroke-miterlimit:10;" d="M 102.828125 354.519531 L 102.828125 81.019531 "/>
</g>
<g clip-path="url(#clip12)" clip-rule="nonzero">
<path style="fill:none;stroke-width:1.066978;stroke-linecap:butt;stroke-linejoin:round;stroke:rgb(92.156863%,92.156863%,92.156863%);stroke-opacity:1;stroke-miterlimit:10;" d="M 134.195313 354.519531 L 134.195313 81.019531 "/>
</g>
<g clip-path="url(#clip13)" clip-rule="nonzero">
<path style="fill:none;stroke-width:1.066978;stroke-linecap:butt;stroke-linejoin:round;stroke:rgb(92.156863%,92.156863%,92.156863%);stroke-opacity:1;stroke-miterlimit:10;" d="M 165.5625 354.519531 L 165.5625 81.019531 "/>
</g>
<g clip-path="url(#clip14)" clip-rule="nonzero">
<path style="fill:none;stroke-width:1.066978;stroke-linecap:butt;stroke-linejoin:round;stroke:rgb(92.156863%,92.156863%,92.156863%);stroke-opacity:1;stroke-miterlimit:10;" d="M 196.933594 354.519531 L 196.933594 81.019531 "/>
</g>
<g clip-path="url(#clip15)" clip-rule="nonzero">
<path style="fill:none;stroke-width:1.066978;stroke-linecap:butt;stroke-linejoin:round;stroke:rgb(92.156863%,92.156863%,92.156863%);stroke-opacity:1;stroke-miterlimit:10;" d="M 228.300781 354.519531 L 228.300781 81.019531 "/>
</g>
<g clip-path="url(#clip16)" clip-rule="nonzero">
<path style="fill:none;stroke-width:1.066978;stroke-linecap:butt;stroke-linejoin:round;stroke:rgb(92.156863%,92.156863%,92.156863%);stroke-opacity:1;stroke-miterlimit:10;" d="M 259.667969 354.519531 L 259.667969 81.019531 "/>
</g>
<g clip-path="url(#clip17)" clip-rule="nonzero">
<path style="fill:none;stroke-width:1.066978;stroke-linecap:butt;stroke-linejoin:round;stroke:rgb(92.156863%,92.156863%,92.156863%);stroke-opacity:1;stroke-miterlimit:10;" d="M 291.035156 354.519531 L 291.035156 81.019531 "/>
</g>
<g clip-path="url(#clip18)" clip-rule="nonzero">
<path style="fill:none;stroke-width:1.066978;stroke-linecap:butt;stroke-linejoin:round;stroke:rgb(92.156863%,92.156863%,92.156863%);stroke-opacity:1;stroke-miterlimit:10;" d="M 322.40625 354.519531 L 322.40625 81.019531 "/>
</g>
<g clip-path="url(#clip19)" clip-rule="nonzero">
<path style="fill:none;stroke-width:1.066978;stroke-linecap:butt;stroke-linejoin:round;stroke:rgb(92.156863%,92.156863%,92.156863%);stroke-opacity:1;stroke-miterlimit:10;" d="M 353.773438 354.519531 L 353.773438 81.019531 "/>
</g>
</g>
</svg>
