<?xml version="1.0" encoding="UTF-8"?>
<svg xmlns="http://www.w3.org/2000/svg" xmlns:xlink="http://www.w3.org/1999/xlink" width="461pt" height="360pt" viewBox="0 0 461 360" version="1.1">
<defs>
<clipPath id="clip1">
  <path d="M 57.535156 124 L 372.59375 124 L 372.59375 125 L 57.535156 125 Z M 57.535156 124 "/>
</clipPath>
<clipPath id="clip2">
  <path d="M 57.535156 186 L 372.59375 186 L 372.59375 187 L 57.535156 187 Z M 57.535156 186 "/>
</clipPath>
<clipPath id="clip3">
  <path d="M 57.535156 248 L 372.59375 248 L 372.59375 250 L 57.535156 250 Z M 57.535156 248 "/>
</clipPath>
<clipPath id="clip4">
  <path d="M 57.535156 310 L 372.59375 310 L 372.59375 312 L 57.535156 312 Z M 57.535156 310 "/>
</clipPath>
<clipPath id="clip5">
  <path d="M 57.535156 92 L 372.59375 92 L 372.59375 94 L 57.535156 94 Z M 57.535156 92 "/>
</clipPath>
<clipPath id="clip6">
  <path d="M 57.535156 155 L 372.59375 155 L 372.59375 157 L 57.535156 157 Z M 57.535156 155 "/>
</clipPath>
<clipPath id="clip7">
  <path d="M 57.535156 217 L 372.59375 217 L 372.59375 219 L 57.535156 219 Z M 57.535156 217 "/>
</clipPath>
<clipPath id="clip8">
  <path d="M 57.535156 279 L 372.59375 279 L 372.59375 281 L 57.535156 281 Z M 57.535156 279 "/>
</clipPath>
<clipPath id="clip9">
  <path d="M 57.535156 341 L 372.59375 341 L 372.59375 343 L 57.535156 343 Z M 57.535156 341 "/>
</clipPath>
<clipPath id="clip10">
  <path d="M 75 81.019531 L 77 81.019531 L 77 354.519531 L 75 354.519531 Z M 75 81.019531 "/>
</clipPath>
<clipPath id="clip11">
  <path d="M 106 81.019531 L 108 81.019531 L 108 354.519531 L 106 354.519531 Z M 106 81.019531 "/>
</clipPath>
<clipPath id="clip12">
  <path d="M 137 81.019531 L 139 81.019531 L 139 354.519531 L 137 354.519531 Z M 137 81.019531 "/>
</clipPath>
<clipPath id="clip13">
  <path d="M 168 81.019531 L 170 81.019531 L 170 354.519531 L 168 354.519531 Z M 168 81.019531 "/>
</clipPath>
<clipPath id="clip14">
  <path d="M 199 81.019531 L 201 81.019531 L 201 354.519531 L 199 354.519531 Z M 199 81.019531 "/>
</clipPath>
<clipPath id="clip15">
  <path d="M 229 81.019531 L 232 81.019531 L 232 354.519531 L 229 354.519531 Z M 229 81.019531 "/>
</clipPath>
<clipPath id="clip16">
  <path d="M 260 81.019531 L 262 81.019531 L 262 354.519531 L 260 354.519531 Z M 260 81.019531 "/>
</clipPath>
<clipPath id="clip17">
  <path d="M 291 81.019531 L 293 81.019531 L 293 354.519531 L 291 354.519531 Z M 291 81.019531 "/>
</clipPath>
<clipPath id="clip18">
  <path d="M 322 81.019531 L 324 81.019531 L 324 354.519531 L 322 354.519531 Z M 322 81.019531 "/>
</clipPath>
<clipPath id="clip19">
  <path d="M 353 81.019531 L 355 81.019531 L 355 354.519531 L 353 354.519531 Z M 353 81.019531 "/>
</clipPath>
</defs>
<g id="surface26">
<rect x="0" y="0" width="461" height="360" style="fill:rgb(100%,100%,100%);fill-opacity:1;stroke:none;"/>
<g clip-path="url(#clip1)" clip-rule="nonzero">
<path style="fill:none;stroke-width:0.533489;stroke-linecap:butt;stroke-linejoin:round;stroke:rgb(92.156863%,92.156863%,92.156863%);stroke-opacity:1;stroke-miterlimit:10;" d="M 57.535156 124.53125 L 372.59375 124.53125 "/>
</g>
<g clip-path="url(#clip2)" clip-rule="nonzero">
<path style="fill:none;stroke-width:0.533489;stroke-linecap:butt;stroke-linejoin:round;stroke:rgb(92.156863%,92.156863%,92.156863%);stroke-opacity:1;stroke-miterlimit:10;" d="M 57.535156 186.691406 L 372.59375 186.691406 "/>
</g>
<g clip-path="url(#clip3)" clip-rule="nonzero">
<path style="fill:none;stroke-width:0.533489;stroke-linecap:butt;stroke-linejoin:round;stroke:rgb(92.156863%,92.156863%,92.156863%);stroke-opacity:1;stroke-miterlimit:10;" d="M 57.535156 248.847656 L 372.59375 248.847656 "/>
</g>
<g clip-path="url(#clip4)" clip-rule="nonzero">
<path style="fill:none;stroke-width:0.533489;stroke-linecap:butt;stroke-linejoin:round;stroke:rgb(92.156863%,92.156863%,92.156863%);stroke-opacity:1;stroke-miterlimit:10;" d="M 57.535156 311.007813 L 372.59375 311.007813 "/>
</g>
<g clip-path="url(#clip5)" clip-rule="nonzero">
<path style="fill:none;stroke-width:1.066978;stroke-linecap:butt;stroke-linejoin:round;stroke:rgb(92.156863%,92.156863%,92.156863%);stroke-opacity:1;stroke-miterlimit:10;" d="M 57.535156 93.449219 L 372.59375 93.449219 "/>
</g>
<g clip-path="url(#clip6)" clip-rule="nonzero">
<path style="fill:none;stroke-width:1.066978;stroke-linecap:butt;stroke-linejoin:round;stroke:rgb(92.156863%,92.156863%,92.156863%);stroke-opacity:1;stroke-miterlimit:10;" d="M 57.535156 155.609375 L 372.59375 155.609375 "/>
</g>
<g clip-path="url(#clip7)" clip-rule="nonzero">
<path style="fill:none;stroke-width:1.066978;stroke-linecap:butt;stroke-linejoin:round;stroke:rgb(92.156863%,92.156863%,92.156863%);stroke-opacity:1;stroke-miterlimit:10;" d="M 57.535156 217.769531 L 372.59375 217.769531 "/>
</g>
<g clip-path="url(#clip8)" clip-rule="nonzero">
<path style="fill:none;stroke-width:1.066978;stroke-linecap:butt;stroke-linejoin:round;stroke:rgb(92.156863%,92.156863%,92.156863%);stroke-opacity:1;stroke-miterlimit:10;" d="M 57.535156 279.929688 L 372.59375 279.929688 "/>
</g>
<g clip-path="url(#clip9)" clip-rule="nonzero">
<path style="fill:none;stroke-width:1.066978;stroke-linecap:butt;stroke-linejoin:round;stroke:rgb(92.156863%,92.156863%,92.156863%);stroke-opacity:1;stroke-miterlimit:10;" d="M 57.535156 342.089844 L 372.59375 342.089844 "/>
</g>
<g clip-path="url(#clip10)" clip-rule="nonzero">
<path style="fill:none;stroke-width:1.066978;stroke-linecap:butt;stroke-linejoin:round;stroke:rgb(92.156863%,92.156863%,92.156863%);stroke-opacity:1;stroke-miterlimit:10;" d="M 76.066406 354.519531 L 76.066406 81.019531 "/>
</g>
<g clip-path="url(#clip11)" clip-rule="nonzero">
<path style="fill:none;stroke-width:1.066978;stroke-linecap:butt;stroke-linejoin:round;stroke:rgb(92.156863%,92.156863%,92.156863%);stroke-opacity:1;stroke-miterlimit:10;" d="M 106.953125 354.519531 L 106.953125 81.019531 "/>
</g>
<g clip-path="url(#clip12)" clip-rule="nonzero">
<path style="fill:none;stroke-width:1.066978;stroke-linecap:butt;stroke-linejoin:round;stroke:rgb(92.156863%,92.156863%,92.156863%);stroke-opacity:1;stroke-miterlimit:10;" d="M 137.84375 354.519531 L 137.84375 81.019531 "/>
</g>
<g clip-path="url(#clip13)" clip-rule="nonzero">
<path style="fill:none;stroke-width:1.066978;stroke-linecap:butt;stroke-linejoin:round;stroke:rgb(92.156863%,92.156863%,92.156863%);stroke-opacity:1;stroke-miterlimit:10;" d="M 168.730469 354.519531 L 168.730469 81.019531 "/>
</g>
<g clip-path="url(#clip14)" clip-rule="nonzero">
<path style="fill:none;stroke-width:1.066978;stroke-linecap:butt;stroke-linejoin:round;stroke:rgb(92.156863%,92.156863%,92.156863%);stroke-opacity:1;stroke-miterlimit:10;" d="M 199.621094 354.519531 L 199.621094 81.019531 "/>
</g>
<g clip-path="url(#clip15)" clip-rule="nonzero">
<path style="fill:none;stroke-width:1.066978;stroke-linecap:butt;stroke-linejoin:round;stroke:rgb(92.156863%,92.156863%,92.156863%);stroke-opacity:1;stroke-miterlimit:10;" d="M 230.507813 354.519531 L 230.507813 81.019531 "/>
</g>
<g clip-path="url(#clip16)" clip-rule="nonzero">
<path style="fill:none;stroke-width:1.066978;stroke-linecap:butt;stroke-linejoin:round;stroke:rgb(92.156863%,92.156863%,92.156863%);stroke-opacity:1;stroke-miterlimit:10;" d="M 261.394531 354.519531 L 261.394531 81.019531 "/>
</g>
<g clip-path="url(#clip17)" clip-rule="nonzero">
<path style="fill:none;stroke-width:1.066978;stroke-linecap:butt;stroke-linejoin:round;stroke:rgb(92.156863%,92.156863%,92.156863%);stroke-opacity:1;stroke-miterlimit:10;" d="M 292.285156 354.519531 L 292.285156 81.019531 "/>
</g>
<g clip-path="url(#clip18)" clip-rule="nonzero">
<path style="fill:none;stroke-width:1.066978;stroke-linecap:butt;stroke-linejoin:round;stroke:rgb(92.156863%,92.156863%,92.156863%);stroke-opacity:1;stroke-miterlimit:10;" d="M 323.171875 354.519531 L 323.171875 81.019531 "/>
</g>
<g clip-path="url(#clip19)" clip-rule="nonzero">
<path style="fill:none;stroke-width:1.066978;stroke-linecap:butt;stroke-linejoin:round;stroke:rgb(92.156863%,92.156863%,92.156863%);stroke-opacity:1;stroke-miterlimit:10;" d="M 354.058594 354.519531 L 354.058594 81.019531 "/>
</g>
</g>
</svg>
