<?xml version="1.0" encoding="UTF-8"?>
<svg xmlns="http://www.w3.org/2000/svg" xmlns:xlink="http://www.w3.org/1999/xlink" width="461pt" height="360pt" viewBox="0 0 461 360" version="1.1">
<defs>
<clipPath id="clip1">
  <path d="M 52.640625 139 L 455.523438 139 L 455.523438 141 L 52.640625 141 Z M 52.640625 139 "/>
</clipPath>
<clipPath id="clip2">
  <path d="M 52.640625 186 L 455.523438 186 L 455.523438 188 L 52.640625 188 Z M 52.640625 186 "/>
</clipPath>
<clipPath id="clip3">
  <path d="M 52.640625 233 L 455.523438 233 L 455.523438 235 L 52.640625 235 Z M 52.640625 233 "/>
</clipPath>
<clipPath id="clip4">
  <path d="M 52.640625 280 L 455.523438 280 L 455.523438 282 L 52.640625 282 Z M 52.640625 280 "/>
</clipPath>
<clipPath id="clip5">
  <path d="M 52.640625 115 L 455.523438 115 L 455.523438 117 L 52.640625 117 Z M 52.640625 115 "/>
</clipPath>
<clipPath id="clip6">
  <path d="M 52.640625 162 L 455.523438 162 L 455.523438 164 L 52.640625 164 Z M 52.640625 162 "/>
</clipPath>
<clipPath id="clip7">
  <path d="M 52.640625 209 L 455.523438 209 L 455.523438 212 L 52.640625 212 Z M 52.640625 209 "/>
</clipPath>
<clipPath id="clip8">
  <path d="M 52.640625 257 L 455.523438 257 L 455.523438 259 L 52.640625 259 Z M 52.640625 257 "/>
</clipPath>
<clipPath id="clip9">
  <path d="M 52.640625 304 L 455.523438 304 L 455.523438 306 L 52.640625 306 Z M 52.640625 304 "/>
</clipPath>
<clipPath id="clip10">
  <path d="M 75 106.957031 L 77 106.957031 L 77 314.097656 L 75 314.097656 Z M 75 106.957031 "/>
</clipPath>
<clipPath id="clip11">
  <path d="M 115 106.957031 L 117 106.957031 L 117 314.097656 L 115 314.097656 Z M 115 106.957031 "/>
</clipPath>
<clipPath id="clip12">
  <path d="M 154 106.957031 L 156 106.957031 L 156 314.097656 L 154 314.097656 Z M 154 106.957031 "/>
</clipPath>
<clipPath id="clip13">
  <path d="M 194 106.957031 L 196 106.957031 L 196 314.097656 L 194 314.097656 Z M 194 106.957031 "/>
</clipPath>
<clipPath id="clip14">
  <path d="M 233 106.957031 L 235 106.957031 L 235 314.097656 L 233 314.097656 Z M 233 106.957031 "/>
</clipPath>
<clipPath id="clip15">
  <path d="M 273 106.957031 L 275 106.957031 L 275 314.097656 L 273 314.097656 Z M 273 106.957031 "/>
</clipPath>
<clipPath id="clip16">
  <path d="M 312 106.957031 L 314 106.957031 L 314 314.097656 L 312 314.097656 Z M 312 106.957031 "/>
</clipPath>
<clipPath id="clip17">
  <path d="M 352 106.957031 L 354 106.957031 L 354 314.097656 L 352 314.097656 Z M 352 106.957031 "/>
</clipPath>
<clipPath id="clip18">
  <path d="M 391 106.957031 L 393 106.957031 L 393 314.097656 L 391 314.097656 Z M 391 106.957031 "/>
</clipPath>
<clipPath id="clip19">
  <path d="M 431 106.957031 L 433 106.957031 L 433 314.097656 L 431 314.097656 Z M 431 106.957031 "/>
</clipPath>
</defs>
<g id="surface16">
<rect x="0" y="0" width="461" height="360" style="fill:rgb(100%,100%,100%);fill-opacity:1;stroke:none;"/>
<g clip-path="url(#clip1)" clip-rule="nonzero">
<path style="fill:none;stroke-width:0.533489;stroke-linecap:butt;stroke-linejoin:round;stroke:rgb(92.156863%,92.156863%,92.156863%);stroke-opacity:1;stroke-miterlimit:10;" d="M 52.640625 139.910156 L 455.519531 139.910156 "/>
</g>
<g clip-path="url(#clip2)" clip-rule="nonzero">
<path style="fill:none;stroke-width:0.533489;stroke-linecap:butt;stroke-linejoin:round;stroke:rgb(92.156863%,92.156863%,92.156863%);stroke-opacity:1;stroke-miterlimit:10;" d="M 52.640625 186.988281 L 455.519531 186.988281 "/>
</g>
<g clip-path="url(#clip3)" clip-rule="nonzero">
<path style="fill:none;stroke-width:0.533489;stroke-linecap:butt;stroke-linejoin:round;stroke:rgb(92.156863%,92.156863%,92.156863%);stroke-opacity:1;stroke-miterlimit:10;" d="M 52.640625 234.066406 L 455.519531 234.066406 "/>
</g>
<g clip-path="url(#clip4)" clip-rule="nonzero">
<path style="fill:none;stroke-width:0.533489;stroke-linecap:butt;stroke-linejoin:round;stroke:rgb(92.156863%,92.156863%,92.156863%);stroke-opacity:1;stroke-miterlimit:10;" d="M 52.640625 281.144531 L 455.519531 281.144531 "/>
</g>
<g clip-path="url(#clip5)" clip-rule="nonzero">
<path style="fill:none;stroke-width:1.066978;stroke-linecap:butt;stroke-linejoin:round;stroke:rgb(92.156863%,92.156863%,92.156863%);stroke-opacity:1;stroke-miterlimit:10;" d="M 52.640625 116.371094 L 455.519531 116.371094 "/>
</g>
<g clip-path="url(#clip6)" clip-rule="nonzero">
<path style="fill:none;stroke-width:1.066978;stroke-linecap:butt;stroke-linejoin:round;stroke:rgb(92.156863%,92.156863%,92.156863%);stroke-opacity:1;stroke-miterlimit:10;" d="M 52.640625 163.449219 L 455.519531 163.449219 "/>
</g>
<g clip-path="url(#clip7)" clip-rule="nonzero">
<path style="fill:none;stroke-width:1.066978;stroke-linecap:butt;stroke-linejoin:round;stroke:rgb(92.156863%,92.156863%,92.156863%);stroke-opacity:1;stroke-miterlimit:10;" d="M 52.640625 210.527344 L 455.519531 210.527344 "/>
</g>
<g clip-path="url(#clip8)" clip-rule="nonzero">
<path style="fill:none;stroke-width:1.066978;stroke-linecap:butt;stroke-linejoin:round;stroke:rgb(92.156863%,92.156863%,92.156863%);stroke-opacity:1;stroke-miterlimit:10;" d="M 52.640625 257.605469 L 455.519531 257.605469 "/>
</g>
<g clip-path="url(#clip9)" clip-rule="nonzero">
<path style="fill:none;stroke-width:1.066978;stroke-linecap:butt;stroke-linejoin:round;stroke:rgb(92.156863%,92.156863%,92.156863%);stroke-opacity:1;stroke-miterlimit:10;" d="M 52.640625 304.683594 L 455.519531 304.683594 "/>
</g>
<g clip-path="url(#clip10)" clip-rule="nonzero">
<path style="fill:none;stroke-width:1.066978;stroke-linecap:butt;stroke-linejoin:round;stroke:rgb(92.156863%,92.156863%,92.156863%);stroke-opacity:1;stroke-miterlimit:10;" d="M 76.339844 314.097656 L 76.339844 106.957031 "/>
</g>
<g clip-path="url(#clip11)" clip-rule="nonzero">
<path style="fill:none;stroke-width:1.066978;stroke-linecap:butt;stroke-linejoin:round;stroke:rgb(92.156863%,92.156863%,92.156863%);stroke-opacity:1;stroke-miterlimit:10;" d="M 115.835938 314.097656 L 115.835938 106.957031 "/>
</g>
<g clip-path="url(#clip12)" clip-rule="nonzero">
<path style="fill:none;stroke-width:1.066978;stroke-linecap:butt;stroke-linejoin:round;stroke:rgb(92.156863%,92.156863%,92.156863%);stroke-opacity:1;stroke-miterlimit:10;" d="M 155.335938 314.097656 L 155.335938 106.957031 "/>
</g>
<g clip-path="url(#clip13)" clip-rule="nonzero">
<path style="fill:none;stroke-width:1.066978;stroke-linecap:butt;stroke-linejoin:round;stroke:rgb(92.156863%,92.156863%,92.156863%);stroke-opacity:1;stroke-miterlimit:10;" d="M 194.832031 314.097656 L 194.832031 106.957031 "/>
</g>
<g clip-path="url(#clip14)" clip-rule="nonzero">
<path style="fill:none;stroke-width:1.066978;stroke-linecap:butt;stroke-linejoin:round;stroke:rgb(92.156863%,92.156863%,92.156863%);stroke-opacity:1;stroke-miterlimit:10;" d="M 234.332031 314.097656 L 234.332031 106.957031 "/>
</g>
<g clip-path="url(#clip15)" clip-rule="nonzero">
<path style="fill:none;stroke-width:1.066978;stroke-linecap:butt;stroke-linejoin:round;stroke:rgb(92.156863%,92.156863%,92.156863%);stroke-opacity:1;stroke-miterlimit:10;" d="M 273.828125 314.097656 L 273.828125 106.957031 "/>
</g>
<g clip-path="url(#clip16)" clip-rule="nonzero">
<path style="fill:none;stroke-width:1.066978;stroke-linecap:butt;stroke-linejoin:round;stroke:rgb(92.156863%,92.156863%,92.156863%);stroke-opacity:1;stroke-miterlimit:10;" d="M 313.328125 314.097656 L 313.328125 106.957031 "/>
</g>
<g clip-path="url(#clip17)" clip-rule="nonzero">
<path style="fill:none;stroke-width:1.066978;stroke-linecap:butt;stroke-linejoin:round;stroke:rgb(92.156863%,92.156863%,92.156863%);stroke-opacity:1;stroke-miterlimit:10;" d="M 352.824219 314.097656 L 352.824219 106.957031 "/>
</g>
<g clip-path="url(#clip18)" clip-rule="nonzero">
<path style="fill:none;stroke-width:1.066978;stroke-linecap:butt;stroke-linejoin:round;stroke:rgb(92.156863%,92.156863%,92.156863%);stroke-opacity:1;stroke-miterlimit:10;" d="M 392.324219 314.097656 L 392.324219 106.957031 "/>
</g>
<g clip-path="url(#clip19)" clip-rule="nonzero">
<path style="fill:none;stroke-width:1.066978;stroke-linecap:butt;stroke-linejoin:round;stroke:rgb(92.156863%,92.156863%,92.156863%);stroke-opacity:1;stroke-miterlimit:10;" d="M 431.820313 314.097656 L 431.820313 106.957031 "/>
</g>
</g>
</svg>
